<svg xmlns="http://www.w3.org/2000/svg" xmlns:xlink="http://www.w3.org/1999/xlink" width="117.472" height="117.472" viewBox="0 0 117.472 117.472">
  <defs>
    <clipPath id="clip-path">
      <circle id="Ellipse_1" data-name="Ellipse 1" cx="58.736" cy="58.736" r="58.736" fill="none"/>
    </clipPath>
    <linearGradient id="linear-gradient" y1="1" x2="0.032" y2="1" gradientUnits="objectBoundingBox">
      <stop offset="0" stop-color="#015f8f"/>
      <stop offset="0.006" stop-color="#015f8f"/>
      <stop offset="1" stop-color="#0682a2"/>
    </linearGradient>
    <clipPath id="clip-path-2">
      <rect id="Rectangle_129" data-name="Rectangle 129" width="92.384" height="90.834" fill="none"/>
    </clipPath>
  </defs>
  <g id="Group_83" data-name="Group 83" transform="translate(-137 -1834)">
    <g id="Group_28" data-name="Group 28" transform="translate(137 1834)">
      <g id="Group_27" data-name="Group 27" transform="translate(0 0)" clip-path="url(#clip-path)">
        <rect id="Rectangle_78" data-name="Rectangle 78" width="117.472" height="117.472" fill="url(#linear-gradient)"/>
        <circle id="Ellipse_2" data-name="Ellipse 2" cx="58.736" cy="58.736" r="58.736" fill="none"/>
      </g>
    </g>
    <g id="Group_74" data-name="Group 74" transform="translate(150.38 1845.604)">
      <g id="Group_73" data-name="Group 73" transform="translate(0 0)" clip-path="url(#clip-path-2)">
        <path id="Path_46" data-name="Path 46" d="M49.306,45.1l-.1.752a2.118,2.118,0,0,1-2.834,1.895A7.235,7.235,0,0,1,42.4,44.576a1.118,1.118,0,0,1,.518-1.708c1.461-.769,2.957-1.478,4.456-2.171.692-.323,1.457-.5,2.141-.837a2.926,2.926,0,0,0,1.9-3.5,8.91,8.91,0,0,1,.862-5.548,9.119,9.119,0,0,0-1.211-10.03c-6.134-8.063-18.934-7.749-24.546.65a12.114,12.114,0,0,0-1.189,12.154,10.441,10.441,0,0,0,2.06,2.867c2.766,2.91,3.5,6.126,1.869,9.873A24.642,24.642,0,0,0,27.2,59.271,16.588,16.588,0,0,0,40.661,73.587a14.789,14.789,0,0,0,10.4-1.648,7.391,7.391,0,0,0,3.624-4.864,12.124,12.124,0,0,1,.9-2.625,4.437,4.437,0,0,1,6.109-2.328,19.979,19.979,0,0,1,3.309,2.094c.709.489,1.308,1.147,2.035,1.6a3.871,3.871,0,0,0,5.077-.684,3.937,3.937,0,0,0,.51-1.266,3.646,3.646,0,0,0-1.321-.217,3.779,3.779,0,0,1-4.252-1.487c-1.308-1.818-2.5-3.717-3.764-5.574a3.681,3.681,0,0,0-4.6-1.5,23.857,23.857,0,0,1-4.72,1.211,22.1,22.1,0,0,1-4.953-.289,1.492,1.492,0,0,1-1-1.054,1.692,1.692,0,0,1,.794-1.313,23.607,23.607,0,0,1,3.246-1.172C58.184,50.52,61.791,46.348,63,40.052c.076-.408.144-.82.242-1.223A3.79,3.79,0,0,1,66.991,35.7q4.422-.229,8.84-.382c2.952-.1,4.673-1.3,5.552-4.121.684-2.2,1.236-4.435,1.839-6.661.191-.688.331-1.415,1.211-1.542s1.236.5,1.585,1.134a42.056,42.056,0,0,1,5.128,23.615A43.732,43.732,0,0,1,74.191,80.019C65.092,87.3,54.569,90.333,42.967,89.6A44.42,44.42,0,0,1,13.978,77.049a45.917,45.917,0,0,1-12.9-23.807C-3.206,33.718,7.687,13.212,26.026,4.771A47.537,47.537,0,0,1,44.739.166,43.985,43.985,0,0,1,65.525,4.839c1.839.9,3.619,1.92,5.387,2.957a6.993,6.993,0,0,1,3.373,4.388c1.062,4.218,2.12,8.441,3.029,12.7.726,3.394-.476,5.268-3.785,6.219-1.568.45-3.173.756-4.762,1.134a10.923,10.923,0,0,0-7.838,7.124c-.65,1.627-1.007,3.373-1.559,5.043-.994,3.016-2.778,5.319-5.943,6.308-1.219.382-1.895-.14-1.941-1.419a16.367,16.367,0,0,0-.263-2.855A1.646,1.646,0,0,0,49.306,45.1m4.72,2.566a5.623,5.623,0,0,0,2.447-2.906c.582-1.521,1.071-3.08,1.538-4.643,1.682-5.616,5.161-9.325,11.041-10.544,1.253-.259,2.511-.51,3.743-.85,2.031-.565,2.515-1.313,2.069-3.4-.714-3.348-1.644-6.653-2.256-10.017-.6-3.3-2.477-5.3-5.387-6.823A46.121,46.121,0,0,0,47.475,2.736,44.065,44.065,0,0,0,28.056,6.623C10.546,14.172.057,33,3.213,51.029c1.529,8.73,5.072,16.555,11.3,22.927,11.054,11.321,24.656,15.234,40,12.409,24.151-4.448,39.215-28.921,32.7-52.583-.552-2.009-1.325-3.951-2-5.922-.7,1.657-1.109,3.271-1.687,4.826a7.043,7.043,0,0,1-5.969,4.945c-3.212.353-6.457.408-9.69.552-1.759.081-2.039.276-2.341,1.988a18.263,18.263,0,0,1-4.014,9.117c-1.045,1.189-2.281,2.213-3.4,3.288a.469.469,0,0,0,.178.008c3.305-.7,5.361.106,7.256,2.9,1.058,1.568,2.069,3.165,3.114,4.737.442.663,1.007,1.364,1.869,1,1.793-.756,3.093.293,4.452,1.075a1.443,1.443,0,0,1,.5,1.223,6.335,6.335,0,0,1-8.934,4.868c-1.092-.565-2.022-1.44-3.063-2.12a25.159,25.159,0,0,0-3.182-1.9,1.681,1.681,0,0,0-2.277.879,8.133,8.133,0,0,0-.867,2.218,10.058,10.058,0,0,1-5.9,7.247A17.137,17.137,0,0,1,39.815,76c-10.289-2.285-16.593-11.525-15.2-22.137a32.629,32.629,0,0,1,2.4-8.768,5.546,5.546,0,0,0-1.143-6.47c-.2-.212-.378-.438-.578-.641-3.229-3.352-4.048-7.4-3.335-11.835.935-5.816,4.537-9.605,9.6-12.179,7.328-3.721,16-.37,20.162,3.794,4.027,4.023,5.128,9.359,2.778,14.278a6.855,6.855,0,0,0-.612,4.053,5.389,5.389,0,0,1-3.02,5.9c-.272.144-.535.306-.93.535,2.914.535,3.785,2.549,4.082,5.136M46.668,43.48c-.5.306-.854.518-1.338.811.5.357.862.612,1.338.947Z" transform="translate(0.487 0.49)" fill="#fff"/>
        <path id="Path_47" data-name="Path 47" d="M49.306,45.1l-.1.752a2.118,2.118,0,0,1-2.834,1.895A7.235,7.235,0,0,1,42.4,44.576a1.118,1.118,0,0,1,.518-1.708c1.461-.769,2.957-1.478,4.456-2.171.692-.323,1.457-.5,2.141-.837a2.926,2.926,0,0,0,1.9-3.5,8.91,8.91,0,0,1,.862-5.548,9.119,9.119,0,0,0-1.211-10.03c-6.134-8.063-18.934-7.749-24.546.65a12.114,12.114,0,0,0-1.189,12.154,10.441,10.441,0,0,0,2.06,2.867c2.766,2.91,3.5,6.126,1.869,9.873A24.642,24.642,0,0,0,27.2,59.271,16.588,16.588,0,0,0,40.661,73.587a14.789,14.789,0,0,0,10.4-1.648,7.391,7.391,0,0,0,3.624-4.864,12.124,12.124,0,0,1,.9-2.625,4.437,4.437,0,0,1,6.109-2.328,19.979,19.979,0,0,1,3.309,2.094c.709.489,1.308,1.147,2.035,1.6a3.871,3.871,0,0,0,5.077-.684,3.937,3.937,0,0,0,.51-1.266,3.646,3.646,0,0,0-1.321-.217,3.779,3.779,0,0,1-4.252-1.487c-1.308-1.818-2.5-3.717-3.764-5.574a3.681,3.681,0,0,0-4.6-1.5,23.857,23.857,0,0,1-4.72,1.211,22.1,22.1,0,0,1-4.953-.289,1.492,1.492,0,0,1-1-1.054,1.692,1.692,0,0,1,.794-1.313,23.607,23.607,0,0,1,3.246-1.172C58.184,50.52,61.791,46.348,63,40.052c.076-.408.144-.82.242-1.223A3.79,3.79,0,0,1,66.991,35.7q4.422-.229,8.84-.382c2.952-.1,4.673-1.3,5.552-4.121.684-2.2,1.236-4.435,1.839-6.661.191-.688.331-1.415,1.211-1.542s1.236.5,1.585,1.134a42.056,42.056,0,0,1,5.128,23.615A43.732,43.732,0,0,1,74.191,80.019C65.092,87.3,54.569,90.333,42.967,89.6A44.42,44.42,0,0,1,13.978,77.049a45.917,45.917,0,0,1-12.9-23.807C-3.206,33.718,7.687,13.212,26.026,4.771A47.537,47.537,0,0,1,44.739.166,43.985,43.985,0,0,1,65.525,4.839c1.839.9,3.619,1.92,5.387,2.957a6.993,6.993,0,0,1,3.373,4.388c1.062,4.218,2.12,8.441,3.029,12.7.726,3.394-.476,5.268-3.785,6.219-1.568.45-3.173.756-4.762,1.134a10.923,10.923,0,0,0-7.838,7.124c-.65,1.627-1.007,3.373-1.559,5.043-.994,3.016-2.778,5.319-5.943,6.308-1.219.382-1.895-.14-1.941-1.419a16.367,16.367,0,0,0-.263-2.855A1.646,1.646,0,0,0,49.306,45.1Zm4.72,2.566a5.623,5.623,0,0,0,2.447-2.906c.582-1.521,1.071-3.08,1.538-4.643,1.682-5.616,5.161-9.325,11.041-10.544,1.253-.259,2.511-.51,3.743-.85,2.031-.565,2.515-1.313,2.069-3.4-.714-3.348-1.644-6.653-2.256-10.017-.6-3.3-2.477-5.3-5.387-6.823A46.121,46.121,0,0,0,47.475,2.736,44.065,44.065,0,0,0,28.056,6.623C10.546,14.172.057,33,3.213,51.029c1.529,8.73,5.072,16.555,11.3,22.927,11.054,11.321,24.656,15.234,40,12.409,24.151-4.448,39.215-28.921,32.7-52.583-.552-2.009-1.325-3.951-2-5.922-.7,1.657-1.109,3.271-1.687,4.826a7.043,7.043,0,0,1-5.969,4.945c-3.212.353-6.457.408-9.69.552-1.759.081-2.039.276-2.341,1.988a18.263,18.263,0,0,1-4.014,9.117c-1.045,1.189-2.281,2.213-3.4,3.288a.469.469,0,0,0,.178.008c3.305-.7,5.361.106,7.256,2.9,1.058,1.568,2.069,3.165,3.114,4.737.442.663,1.007,1.364,1.869,1,1.793-.756,3.093.293,4.452,1.075a1.443,1.443,0,0,1,.5,1.223,6.335,6.335,0,0,1-8.934,4.868c-1.092-.565-2.022-1.44-3.063-2.12a25.159,25.159,0,0,0-3.182-1.9,1.681,1.681,0,0,0-2.277.879,8.133,8.133,0,0,0-.867,2.218,10.058,10.058,0,0,1-5.9,7.247A17.137,17.137,0,0,1,39.815,76c-10.289-2.285-16.593-11.525-15.2-22.137a32.629,32.629,0,0,1,2.4-8.768,5.546,5.546,0,0,0-1.143-6.47c-.2-.212-.378-.438-.578-.641-3.229-3.352-4.048-7.4-3.335-11.835.935-5.816,4.537-9.605,9.6-12.179,7.328-3.721,16-.37,20.162,3.794,4.027,4.023,5.128,9.359,2.778,14.278a6.855,6.855,0,0,0-.612,4.053,5.389,5.389,0,0,1-3.02,5.9c-.272.144-.535.306-.93.535C52.857,43.064,53.728,45.078,54.025,47.665ZM46.668,43.48c-.5.306-.854.518-1.338.811.5.357.862.612,1.338.947Z" transform="translate(0.487 0.49)" fill="none" stroke="#fff" stroke-miterlimit="10" stroke-width="0.3"/>
      </g>
    </g>
  </g>
</svg>
