<svg xmlns="http://www.w3.org/2000/svg" xmlns:xlink="http://www.w3.org/1999/xlink" width="117.472" height="117.472" viewBox="0 0 117.472 117.472">
  <defs>
    <clipPath id="clip-path">
      <circle id="Ellipse_1" data-name="Ellipse 1" cx="58.736" cy="58.736" r="58.736" fill="none"/>
    </clipPath>
    <linearGradient id="linear-gradient" y1="1" x2="0.032" y2="1" gradientUnits="objectBoundingBox">
      <stop offset="0" stop-color="#015f8f"/>
      <stop offset="0.006" stop-color="#015f8f"/>
      <stop offset="1" stop-color="#0682a2"/>
    </linearGradient>
    <clipPath id="clip-path-2">
      <rect id="Rectangle_128" data-name="Rectangle 128" width="84.063" height="83.417" fill="none"/>
    </clipPath>
  </defs>
  <g id="Group_84" data-name="Group 84" transform="translate(-137.837 -2227.291)">
    <g id="Group_30" data-name="Group 30" transform="translate(137.837 2227.292)">
      <g id="Group_27" data-name="Group 27" transform="translate(0 0)" clip-path="url(#clip-path)">
        <rect id="Rectangle_78" data-name="Rectangle 78" width="117.472" height="117.472" fill="url(#linear-gradient)"/>
        <circle id="Ellipse_2" data-name="Ellipse 2" cx="58.736" cy="58.736" r="58.736" fill="none"/>
      </g>
    </g>
    <g id="Group_72" data-name="Group 72" transform="translate(153.705 2248.027)">
      <g id="Group_71" data-name="Group 71" transform="translate(0 0)" clip-path="url(#clip-path-2)">
        <path id="Path_34" data-name="Path 34" d="M62.869,15.452,60.5,13.079l-.793-.793-5.89-5.847-.745-.788-2.42-2.373a2.94,2.94,0,0,0-4.086,0l-.043.043L32.5,17.341,17.732,32.062l-.745.793L3.622,46.171a4.431,4.431,0,0,0,0,6.241l.617.617.925.878v.043l7.029,7.033.968.921.569.574a4.38,4.38,0,0,0,6.2,0L33.288,49.161l.793-.793L48.807,33.647,62.869,19.581a2.993,2.993,0,0,0,0-4.129m-5.054,7.6-.66.66-8.348,8.348-.793.793L33.288,47.576l-.788.793L19.136,61.686a3.233,3.233,0,0,1-4.656,0l-.09-.043L4.5,51.71l-.09-.085a3.314,3.314,0,0,1,0-4.66L17.774,33.647l.75-.793,4.746-4.746,10.018-9.976.793-.793,8.353-8.4.612-.612,2.681-2.639,1.628-1.628a1.8,1.8,0,0,1,2.549,0l9.8,9.8,2.373,2.378a1.8,1.8,0,0,1,0,2.549l-.043.043L60.5,20.373Z" transform="translate(8.755 9.19)" fill="#fff"/>
        <path id="Path_35" data-name="Path 35" d="M4.056,12.831,3.795,14.15,2.476,20.083a2.114,2.114,0,0,0,.569,1.761l.617.66.66.655.617.617a2.2,2.2,0,0,0,1.756.574l6.022-1.319,1.229-.266ZM6.519,23.248a.926.926,0,0,1-.793-.266L3.838,21.093a.913.913,0,0,1-.261-.788l1.139-5.235L11.749,22.1Z" transform="translate(9.199 48.064)" fill="#fff"/>
        <path id="Path_36" data-name="Path 36" d="M.769,28,0,28.047,13.26,14.782l.655.655L1.965,27.392A2.178,2.178,0,0,1,.769,28" transform="translate(0 55.372)" fill="#fff"/>
        <rect id="Rectangle_98" data-name="Rectangle 98" width="0.779" height="4.342" transform="matrix(0.707, -0.707, 0.707, 0.707, 57.141, 32.219)" fill="#fff"/>
        <rect id="Rectangle_99" data-name="Rectangle 99" width="0.894" height="21.838" transform="translate(50.827 17.798) rotate(-45)" fill="#fff"/>
        <rect id="Rectangle_100" data-name="Rectangle 100" width="0.785" height="4.342" transform="matrix(0.707, -0.707, 0.707, 0.707, 54.458, 34.901)" fill="#fff"/>
        <rect id="Rectangle_101" data-name="Rectangle 101" width="0.711" height="4.342" transform="matrix(0.707, -0.707, 0.707, 0.707, 51.831, 37.529)" fill="#fff"/>
        <rect id="Rectangle_102" data-name="Rectangle 102" width="0.837" height="7.616" transform="translate(46.75 37.979) rotate(-45)" fill="#fff"/>
        <rect id="Rectangle_103" data-name="Rectangle 103" width="0.669" height="4.344" transform="matrix(0.707, -0.707, 0.707, 0.707, 46.505, 42.852)" fill="#fff"/>
        <rect id="Rectangle_104" data-name="Rectangle 104" width="0.752" height="4.342" transform="translate(43.769 45.59) rotate(-45)" fill="#fff"/>
        <rect id="Rectangle_105" data-name="Rectangle 105" width="0.799" height="4.342" transform="translate(41.059 48.301) rotate(-45)" fill="#fff"/>
        <rect id="Rectangle_106" data-name="Rectangle 106" width="0.805" height="7.618" transform="translate(36.06 48.667) rotate(-45)" fill="#fff"/>
        <rect id="Rectangle_107" data-name="Rectangle 107" width="0.772" height="4.342" transform="translate(35.721 53.638) rotate(-45)" fill="#fff"/>
        <rect id="Rectangle_108" data-name="Rectangle 108" width="0.779" height="4.342" transform="translate(33.039 56.321) rotate(-45)" fill="#fff"/>
        <rect id="Rectangle_109" data-name="Rectangle 109" width="0.765" height="4.342" transform="translate(30.37 58.99) rotate(-45)" fill="#fff"/>
        <rect id="Rectangle_110" data-name="Rectangle 110" width="0.772" height="7.618" transform="translate(25.371 59.356) rotate(-45)" fill="#fff"/>
        <rect id="Rectangle_111" data-name="Rectangle 111" width="0.718" height="4.342" transform="translate(25.046 64.313) rotate(-45)" fill="#fff"/>
        <rect id="Rectangle_112" data-name="Rectangle 112" width="0.745" height="4.342" transform="translate(22.349 67.01) rotate(-45)" fill="#fff"/>
        <path id="Path_37" data-name="Path 37" d="M24.507,19.6l-3.669-3.669.778-.778,3.669,3.669a1.809,1.809,0,0,0,2.558-2.558L15.666,4.077a1.809,1.809,0,0,0-2.558,2.558l4.271,4.276-.778.778L12.329,7.418A2.911,2.911,0,0,1,16.444,3.3L28.626,15.476A2.913,2.913,0,1,1,24.507,19.6" transform="translate(42.983 9.17)" fill="#fff"/>
        <path id="Path_38" data-name="Path 38" d="M26.952,17.148l-3.669-3.669.778-.778,3.669,3.669a1.809,1.809,0,0,0,2.558-2.558L18.111,1.629a1.809,1.809,0,0,0-2.558,2.558l4.271,4.276-.778.778L14.774,4.97A2.911,2.911,0,0,1,18.889.85L31.071,13.028a2.913,2.913,0,1,1-4.119,4.119" transform="translate(52.142 0)" fill="#fff"/>
        <path id="Path_39" data-name="Path 39" d="M20.277,17.857,12.859,10.44l3.322-3.327.778.778L14.416,10.44,20.277,16.3l7.494-7.489L21.91,2.946,19.75,5.105l-.778-.778L21.91,1.385l7.418,7.422Z" transform="translate(48.169 5.188)" fill="#fff"/>
        <path id="Path_40" data-name="Path 40" d="M62.5,46.168,49.187,32.852,32.88,16.545,19.782,3.489c-.043-.043-.081-.133-.171-.176a2.962,2.962,0,0,0-4.129-.043L13.1,5.644l-.788.793L6.465,12.278l-.788.793L3.3,15.444a2.919,2.919,0,0,0,0,4.134L32.087,48.366l.793.788L46.2,62.47a4.431,4.431,0,0,0,6.241,0l.57-.57.925-.925L61.008,53.9l.878-.878.617-.612a4.431,4.431,0,0,0,0-6.241m-.793,5.448-.085.085-9.89,9.933-.09.047a3.241,3.241,0,0,1-4.656,0L32.88,47.573,18.111,32.852l-9.14-9.145-.617-.66L5.677,20.365,4.092,18.828v-.043a1.813,1.813,0,0,1,0-2.549v-.043l2.373-2.33,7.427-7.427,2.373-2.373a1.8,1.8,0,0,1,2.553,0l.043.043L20.4,5.644,32.087,17.333l.793.793L42.9,28.148l5.5,5.491L61.711,46.956a3.238,3.238,0,0,1,0,4.66" transform="translate(9.163 9.193)" fill="#fff"/>
        <path id="Path_41" data-name="Path 41" d="M24.3,20.084l-1.319-5.932-.271-1.319-9.881,9.933,1.272.261,5.98,1.319a2.1,2.1,0,0,0,1.756-.57l.617-.617.66-.66.607-.66a1.8,1.8,0,0,0,.622-1.362,1.255,1.255,0,0,0-.043-.394m-1.319,1.011-1.936,1.889a.845.845,0,0,1-.788.266l-5.235-1.144L22.1,15.029,23.25,20.3a1.111,1.111,0,0,1-.266.793" transform="translate(48.07 48.068)" fill="#fff"/>
        <path id="Path_42" data-name="Path 42" d="M27.927,28l.769.047L15.436,14.782l-.655.655,11.95,11.955a2.178,2.178,0,0,0,1.2.607" transform="translate(55.367 55.372)" fill="#fff"/>
        <rect id="Rectangle_113" data-name="Rectangle 113" width="4.342" height="0.779" transform="translate(23.303 34.739) rotate(-45)" fill="#fff"/>
        <rect id="Rectangle_114" data-name="Rectangle 114" width="21.838" height="0.894" transform="translate(17.164 32.607) rotate(-45)" fill="#fff"/>
        <rect id="Rectangle_115" data-name="Rectangle 115" width="4.342" height="0.785" transform="translate(25.981 37.417) rotate(-45)" fill="#fff"/>
        <rect id="Rectangle_116" data-name="Rectangle 116" width="4.342" height="0.711" transform="translate(28.661 40.096) rotate(-45)" fill="#fff"/>
        <rect id="Rectangle_117" data-name="Rectangle 117" width="7.616" height="0.837" transform="translate(31.337 42.772) rotate(-45)" fill="#fff"/>
        <rect id="Rectangle_118" data-name="Rectangle 118" width="4.344" height="0.669" transform="translate(34.014 45.45) rotate(-45)" fill="#fff"/>
        <rect id="Rectangle_119" data-name="Rectangle 119" width="4.342" height="0.752" transform="translate(36.694 48.129) rotate(-45)" fill="#fff"/>
        <rect id="Rectangle_120" data-name="Rectangle 120" width="4.342" height="0.799" transform="translate(39.371 50.806) rotate(-45)" fill="#fff"/>
        <rect id="Rectangle_121" data-name="Rectangle 121" width="7.618" height="0.805" transform="translate(42.048 53.484) rotate(-45)" fill="#fff"/>
        <rect id="Rectangle_122" data-name="Rectangle 122" width="4.342" height="0.772" transform="translate(44.727 56.163) rotate(-45)" fill="#fff"/>
        <rect id="Rectangle_123" data-name="Rectangle 123" width="4.342" height="0.779" transform="translate(47.405 58.841) rotate(-45)" fill="#fff"/>
        <rect id="Rectangle_124" data-name="Rectangle 124" width="4.342" height="0.765" transform="translate(50.084 61.519) rotate(-45)" fill="#fff"/>
        <rect id="Rectangle_125" data-name="Rectangle 125" width="7.618" height="0.772" transform="translate(52.761 64.197) rotate(-45)" fill="#fff"/>
        <rect id="Rectangle_126" data-name="Rectangle 126" width="4.342" height="0.718" transform="translate(55.441 66.876) rotate(-45)" fill="#fff"/>
        <rect id="Rectangle_127" data-name="Rectangle 127" width="4.342" height="0.745" transform="translate(58.118 69.553) rotate(-45)" fill="#fff"/>
        <path id="Path_43" data-name="Path 43" d="M7.416,19.6l3.669-3.669-.778-.778L6.637,18.817a1.809,1.809,0,0,1-2.558-2.558L16.257,4.077a1.809,1.809,0,1,1,2.558,2.558l-4.271,4.276.778.778,4.271-4.271A2.911,2.911,0,0,0,15.479,3.3L3.3,15.476A2.913,2.913,0,0,0,7.416,19.6" transform="translate(9.161 9.17)" fill="#fff"/>
        <path id="Path_44" data-name="Path 44" d="M4.97,17.148l3.669-3.669L7.86,12.7,4.191,16.369a1.809,1.809,0,0,1-2.558-2.558L13.811,1.629a1.809,1.809,0,0,1,2.558,2.558L12.1,8.463l.778.778L17.148,4.97A2.911,2.911,0,0,0,13.033.85L.85,13.028A2.913,2.913,0,0,0,4.97,17.148" transform="translate(-0.001 0)" fill="#fff"/>
        <path id="Path_45" data-name="Path 45" d="M10.434,17.857l7.418-7.418L14.53,7.113l-.778.778L16.3,10.44,10.434,16.3,2.941,8.807,8.8,2.946l2.159,2.159.778-.778L8.8,1.385,1.384,8.807Z" transform="translate(5.184 5.188)" fill="#fff"/>
      </g>
    </g>
  </g>
</svg>
