<svg xmlns="http://www.w3.org/2000/svg" width="393.787" height="92.575" viewBox="0 0 393.787 92.575">
  <g id="Group_6" data-name="Group 6" transform="translate(-65.993 -344.589)">
    <g id="Layer_1" data-name="Layer 1" transform="translate(65.993 344.589)">
      <path id="Path_5" data-name="Path 5" d="M413.964,344.589H65.993v92.575H459.78V377.695S460.094,344.589,413.964,344.589Z" transform="translate(-65.993 -344.589)" fill="#e5e3ee"/>
    </g>
    <g id="Layer_1_copy" data-name="Layer 1 copy" transform="translate(96.383 344.589)">
      <path id="Path_6" data-name="Path 6" d="M100.25,437.164h23.361V400.573H100.25Zm317.581-92.575H195.658V365.5H154.274v15.3h32.488v21.156H154.274v35.212H463.647V377.695S463.961,344.589,417.831,344.589Z" transform="translate(-100.25 -344.589)" fill="#c07500"/>
      <text id="Associates" transform="translate(276.827 79.328)" fill="#fff" font-size="18" font-family="Raleway-Regular, Raleway"><tspan x="-44.406" y="0">Associates</tspan></text>
      <text id="Medical_" data-name="Medical 
" transform="translate(280.536 51.077)" fill="#fff" font-size="25" font-family="Raleway-Regular, Raleway"><tspan x="-48.588" y="0">Medical </tspan><tspan x="0" y="15"></tspan></text>
      <path id="Path_7" data-name="Path 7" d="M344.378,414.595s14.877-8.254,65.12.1,60.553-1.6,66.7-4.987c0,0-17.128,12.781-66.683,3.175-50.409-7.11-65.1,1.51-65.1,1.51Z" transform="translate(-127.807 -351.94)" fill="#30115b"/>
    </g>
    <g id="Layer_2" data-name="Layer 2" transform="translate(96.383 344.589)">
      <rect id="Rectangle_59" data-name="Rectangle 59" width="23.361" height="33.106" transform="translate(0)" fill="#30115b"/>
    </g>
  </g>
</svg>
