<svg xmlns="http://www.w3.org/2000/svg" width="226.731" height="53.302" viewBox="0 0 226.731 53.302">
  <g id="Logo_Header" data-name="Logo Header" transform="translate(-65.993 -344.589)">
    <g id="Layer_1" data-name="Layer 1" transform="translate(65.993 344.589)">
      <path id="Path_5" data-name="Path 5" d="M266.344,344.589H65.993v53.3H292.724V363.65S292.9,344.589,266.344,344.589Z" transform="translate(-65.993 -344.589)" fill="#e5e3ee"/>
    </g>
    <g id="Layer_1_copy" data-name="Layer 1 copy" transform="translate(83.491 344.589)">
      <path id="Path_6" data-name="Path 6" d="M100.25,397.891H113.7V376.823H100.25Zm182.854-53.3H155.183v12.039H131.355v8.808h18.706v12.181H131.355v20.274H309.483V363.65S309.664,344.589,283.1,344.589Z" transform="translate(-100.25 -344.589)" fill="#c07500"/>
      <text id="Associates" transform="translate(159.055 44.886)" fill="#fff" font-size="10" font-family="Raleway"><tspan x="-24.765" y="0">Associates</tspan></text>
      <text id="Medical_" data-name="Medical 
" transform="translate(162.312 29.59)" fill="#fff" font-size="15" font-family="Raleway"><tspan x="-29.19" y="0">Medical </tspan><tspan x="0" y="9"></tspan></text>
      <path id="Path_7" data-name="Path 7" d="M344.378,412.523s8.566-4.752,37.494.06,34.865-.922,38.405-2.872c0,0-9.862,7.359-38.394,1.828-29.024-4.094-37.484.869-37.484.869Z" transform="translate(-219.683 -376.448)" fill="#30115b"/>
    </g>
    <g id="Layer_2" data-name="Layer 2" transform="translate(83.491 344.589)">
      <rect id="Rectangle_59" data-name="Rectangle 59" width="13.451" height="19.061" transform="translate(0)" fill="#30115b"/>
    </g>
  </g>
</svg>
